# xmcd
#
# Track frame offsets:
#	150
#	16161
#	29801
#	44213
#	57280
#	73541
#	86999
#	109334
#	125135
#	140715
#
# Disc length: 2077 seconds
#
# Revision: 1
# Processed by: cddbd v1.5.2PL0 Copyright (c) Steve Scherf et al.
# Submitted via: audiograbber 1.83.01
#
DISCID=a0081b0a
DTITLE=Don Hughes - Thats How Far Love Goes Don Hughes
DYEAR=1900
DGENRE=
TTITLE0=Illusions Of Love
TTITLE1=A Song About Her
TTITLE2=Something I Just Can´t Explain
TTITLE3=That´s How Far Love Goes
TTITLE4=I Can´t Remember To Forget Her
TTITLE5=Hold On
TTITLE6=He´s A Gay And She´s A Girl
TTITLE7=Don´t Go
TTITLE8=She Ain´t Tryin´ 
TTITLE9=That Wastthen, This Is Now
EXTD=
EXTT0=
EXTT1=
EXTT2=
EXTT3=
EXTT4=
EXTT5=
EXTT6=
EXTT7=
EXTT8=
EXTT9=
PLAYORDER=
